<svg version="1.2" xmlns="http://www.w3.org/2000/svg" viewBox="0 0 1027 1027" width="1027" height="1027"><style>.a{fill:#fff}.b{fill:#eb2c00}</style><path fill-rule="evenodd" class="a" d="m312 162h401c82.8 0 150 67.2 150 150v402c0 82.8-67.2 150-150 150h-401c-82.8 0-150-67.2-150-150v-402c0-82.8 67.2-150 150-150z"/><path fill-rule="evenodd" class="b" d="m352 197h322.9c82.8 0 150 67.2 150 150v332c0 82.8-67.2 150-150 150h-322.9c-82.8 0-150-67.2-150-150v-332c0-82.8 67.2-150 150-150z"/><path class="a" d="m270 361l86 1-1-89-51 1c0 0-31 14.1-34.2 38.3-0.3 30.1 0.2 48.7 0.2 48.7zm137.1-87.1h342.7l0.2 229.1-103 107 60 61 46.9-0.1 0.1 43.1c0 0-6.5 29.7-30 36-27.2 4.8-72 2-72 2l-73-74-73 75-98-1 1-82 40.1 1 56.6-61.7c-2.4 0-98.6-108.1-98.5-108.1l-0.2-112.2 92.8 0.5v73.5l72.8 75.7 88.2-83.8-1.5-97.7-252.3-3.2zm-138 131.2l86.9 0.9v86h-87.1zm0.7 125.7l86.2-1.7v224.1h-85z"/></svg>