<svg version="1.2" xmlns="http://www.w3.org/2000/svg" viewBox="0 0 1027 1027" width="1027" height="1027"><style>.a{fill:#cb3d42}</style><path class="a" d="m177.5 320.3l119.6 1.4-1.4-123.7-70.9 1.4c0 0-43.1 19.6-47.5 53.2-0.5 41.9 0.2 67.7 0.2 67.7zm190.6-121h476.4l0.3 318.4-143.2 148.8 83.4 84.8 65.2-0.1 0.2 59.9c0 0-9.1 41.3-41.7 50-37.8 6.7-100.1 2.8-100.1 2.8l-101.5-102.9-101.5 104.3-136.2-1.4 1.4-114 55.7 1.4 78.7-85.8c-3.3 0-137.1-150.3-136.9-150.3l-0.3-155.9 129 0.7v102.1l101.2 105.3 122.6-116.5-2.1-135.8-350.7-4.5zm-191.9 182.4l120.8 1.3v119.5h-121zm0.9 174.8l119.9-2.4v311.5h-118.2z"/></svg>