<svg version="1.2" xmlns="http://www.w3.org/2000/svg" viewBox="0 0 1024 1024" width="1024" height="1024"><style>.a{fill:#cb3d42}</style><path class="a" d="m98.9 243.3l151.9 1.8-1.8-157.1-90 1.8c0 0-54.8 24.9-60.3 67.5-0.7 53.2 0.2 86 0.2 86zm242-153.6h604.9l0.4 404.2-181.8 189 105.9 107.7 82.8-0.2 0.2 76.1c0 0-11.5 52.4-52.9 63.5-48 8.5-127.1 3.5-127.1 3.5l-128.9-130.6-128.9 132.4-172.9-1.8 1.8-144.7 70.7 1.8 99.9-109c-4.2 0-174.1-190.8-173.8-190.8l-0.4-198 163.8 0.9v129.6l128.5 133.8 155.7-148-2.7-172.4-445.3-5.7zm-243.7 231.6l153.4 1.6v151.8h-153.6zm1.1 221.9l152.3-3v395.5h-150.1z"/></svg>